<svg width="2558" height="729" viewBox="0 0 2558 729" fill="none" xmlns="http://www.w3.org/2000/svg">
<path opacity="0.3" d="M2558 364.5C2558 565.808 2394.58 729 2193 729C1991.42 729 1828 565.808 1828 364.5C1828 163.192 1991.42 0 2193 0C2394.58 0 2558 163.192 2558 364.5ZM1901.92 364.5C1901.92 525.038 2032.24 655.179 2193 655.179C2353.76 655.179 2484.08 525.038 2484.08 364.5C2484.08 203.962 2353.76 73.821 2193 73.821C2032.24 73.821 1901.92 203.962 1901.92 364.5Z" fill="#F72585"/>
<path opacity="0.3" d="M730 364.5C730 565.808 566.584 729 365 729C163.416 729 0 565.808 0 364.5C0 163.192 163.416 0 365 0C566.584 0 730 163.192 730 364.5ZM73.9222 364.5C73.9222 525.038 204.242 655.179 365 655.179C525.758 655.179 656.078 525.038 656.078 364.5C656.078 203.962 525.758 73.821 365 73.821C204.242 73.821 73.9222 203.962 73.9222 364.5Z" fill="#F72585"/>
</svg>
