<svg width="290" height="46" viewBox="0 0 290 46" fill="none" xmlns="http://www.w3.org/2000/svg">
<path d="M276.611 23.5529V3.64904C269.971 4.3125 266.652 7.77724 266.652 14.0433C266.652 16.476 267.5 18.6138 269.197 20.4567C270.893 22.226 273.365 23.258 276.611 23.5529ZM268.643 46L267.537 44.8942C272.996 39.4391 275.947 33.4679 276.389 26.9808C272.406 26.9808 269.16 25.6907 266.652 23.1106C264.217 20.4567 263 17.4343 263 14.0433C263 10.1362 264.18 6.81891 266.541 4.09135C268.902 1.36378 272.258 0 276.611 0C281.111 0 284.467 1.69551 286.68 5.08654C288.893 8.47756 290 12.016 290 15.7019C290 23.2212 287.602 29.5978 282.807 34.8317C278.086 40.0657 273.365 43.7885 268.643 46Z" fill="#961A7A"/>
<path d="M13.3893 22.4471L13.3893 42.351C20.0287 41.6875 23.3484 38.2228 23.3484 31.9567C23.3484 29.524 22.5 27.3862 20.8033 25.5433C19.1066 23.774 16.6352 22.742 13.3893 22.4471ZM21.3566 -1.23842e-06L22.4631 1.10577C17.0041 6.5609 14.0533 12.532 13.6107 19.0192C17.5943 19.0192 20.8402 20.3093 23.3484 22.8894C25.7828 25.5433 27 28.5657 27 31.9567C27 35.8638 25.8197 39.1811 23.459 41.9087C21.0984 44.6362 17.7418 46 13.3893 46C8.88934 46 5.53279 44.3045 3.31967 40.9135C1.10656 37.5224 5.14033e-07 33.984 8.36264e-07 30.2981C1.49362e-06 22.7788 2.39754 16.4022 7.19263 11.1683C11.9139 5.93429 16.6352 2.21154 21.3566 -1.23842e-06Z" fill="#961A7A"/>
</svg>
