<svg width="102" height="102" viewBox="0 0 102 102" fill="none" xmlns="http://www.w3.org/2000/svg">
<circle opacity="0.3" cx="51" cy="51" r="51" fill="#CEA6C8"/>
<path d="M57.8358 68.0898H44.1639C43.8013 68.0898 43.4536 68.2339 43.1972 68.4903C42.9408 68.7467 42.7968 69.0944 42.7968 69.457C42.7968 69.8196 42.9408 70.1674 43.1972 70.4238C43.4536 70.6802 43.8013 70.8242 44.1639 70.8242H47.137C47.4188 71.6237 47.9417 72.316 48.6337 72.8058C49.3256 73.2955 50.1524 73.5585 51.0001 73.5585C51.8478 73.5585 52.6747 73.2955 53.3666 72.8058C54.0585 72.316 54.5814 71.6237 54.8633 70.8242H57.8358C58.1984 70.8242 58.5462 70.6802 58.8026 70.4238C59.059 70.1674 59.203 69.8196 59.203 69.457C59.203 69.0944 59.059 68.7467 58.8026 68.4903C58.5462 68.2339 58.1984 68.0898 57.8358 68.0898Z" fill="white"/>
<path d="M57.8358 63.9883H44.1639C43.8013 63.9883 43.4536 64.1323 43.1972 64.3887C42.9408 64.6451 42.7968 64.9929 42.7968 65.3555C42.7968 65.7181 42.9408 66.0658 43.1972 66.3222C43.4536 66.5786 43.8013 66.7227 44.1639 66.7227H57.8358C58.1984 66.7227 58.5462 66.5786 58.8026 66.3222C59.059 66.0658 59.203 65.7181 59.203 65.3555C59.203 64.9929 59.059 64.6451 58.8026 64.3887C58.5462 64.1323 58.1984 63.9883 57.8358 63.9883Z" fill="white"/>
<path d="M59.8562 54.2849C61.0797 52.6426 61.8224 50.6925 62.0014 48.6525C62.1804 46.6125 61.7887 44.5628 60.8699 42.7326C59.9511 40.9024 58.5415 39.3637 56.7986 38.2885C55.0557 37.2132 53.0482 36.6438 51.0003 36.6438C48.9524 36.6438 46.9449 37.2132 45.202 38.2885C43.4591 39.3637 42.0495 40.9024 41.1307 42.7326C40.212 44.5628 39.8202 46.6125 39.9992 48.6525C40.1782 50.6925 40.9209 52.6426 42.1444 54.2849L46.3143 59.8835L46.3182 59.8867H44.164C43.8014 59.8867 43.4536 60.0308 43.1972 60.2872C42.9408 60.5436 42.7968 60.8913 42.7968 61.2539C42.7968 61.6165 42.9408 61.9643 43.1972 62.2207C43.4536 62.477 43.8014 62.6211 44.164 62.6211H57.8358C58.1984 62.6211 58.5462 62.477 58.8026 62.2207C59.059 61.9643 59.203 61.6165 59.203 61.2539C59.203 60.8913 59.059 60.5436 58.8026 60.2872C58.5462 60.0308 58.1984 59.8867 57.8358 59.8867H55.6817L55.6864 59.8835L59.8562 54.2849ZM52.3688 59.8867H49.6258L49.6297 59.8835V51.6803H47.579C47.2164 51.6803 46.8686 51.5363 46.6122 51.2799C46.3558 51.0235 46.2118 50.6758 46.2118 50.3132C46.2118 49.9506 46.3558 49.6028 46.6122 49.3464C46.8686 49.09 47.2164 48.946 47.579 48.946H54.4149C54.7775 48.946 55.1252 49.09 55.3816 49.3464C55.638 49.6028 55.7821 49.9506 55.7821 50.3132C55.7821 50.6758 55.638 51.0235 55.3816 51.2799C55.1252 51.5363 54.7775 51.6803 54.4149 51.6803H52.3641V59.8835L52.3688 59.8867Z" fill="white"/>
<path d="M67.1691 55.4461L64.801 54.0789C64.6455 53.9886 64.4737 53.9299 64.2954 53.9061C64.1172 53.8823 63.936 53.8939 63.7623 53.9402C63.5886 53.9865 63.4257 54.0667 63.2829 54.176C63.1402 54.2854 63.0205 54.4218 62.9306 54.5776C62.8406 54.7333 62.7823 54.9052 62.759 55.0835C62.7356 55.2618 62.7476 55.4429 62.7944 55.6166C62.8411 55.7902 62.9217 55.9529 63.0314 56.0953C63.1411 56.2378 63.2778 56.3572 63.4338 56.4468L65.8019 57.8139C65.9574 57.9042 66.1292 57.963 66.3074 57.9868C66.4857 58.0105 66.6668 57.999 66.8406 57.9526C67.0143 57.9063 67.1772 57.8262 67.32 57.7168C67.4627 57.6074 67.5824 57.471 67.6723 57.3153C67.7622 57.1595 67.8205 56.9876 67.8439 56.8093C67.8673 56.631 67.8553 56.4499 67.8085 56.2763C67.7618 56.1026 67.6812 55.9399 67.5715 55.7975C67.4618 55.655 67.3251 55.5356 67.1691 55.4461Z" fill="white"/>
<path d="M64.1186 41.4837C64.3583 41.4837 64.5937 41.4204 64.8009 41.3001L67.1691 39.9329C67.3245 39.8431 67.4608 39.7236 67.5701 39.5812C67.6794 39.4387 67.7596 39.2762 67.806 39.1028C67.8525 38.9293 67.8643 38.7485 67.8409 38.5705C67.8175 38.3925 67.7592 38.2208 67.6694 38.0654C67.5796 37.9099 67.4601 37.7736 67.3177 37.6643C67.1753 37.555 67.0127 37.4749 66.8393 37.4284C66.6659 37.3819 66.485 37.3701 66.307 37.3935C66.129 37.417 65.9574 37.4752 65.8019 37.565L63.4337 38.9322C63.173 39.0828 62.9693 39.3152 62.8542 39.5934C62.7391 39.8716 62.719 40.18 62.7971 40.4708C62.8751 40.7615 63.047 41.0184 63.2859 41.2016C63.5249 41.3847 63.8176 41.4839 64.1186 41.4837Z" fill="white"/>
<path d="M50.9999 33.9102C51.3625 33.9101 51.7102 33.7661 51.9666 33.5097C52.223 33.2533 52.367 32.9056 52.3671 32.543V29.8086C52.3671 29.446 52.223 29.0982 51.9666 28.8418C51.7102 28.5854 51.3625 28.4414 50.9999 28.4414C50.6373 28.4414 50.2895 28.5854 50.0331 28.8418C49.7767 29.0982 49.6327 29.446 49.6327 29.8086V32.543C49.6327 32.9056 49.7768 33.2533 50.0331 33.5097C50.2895 33.7661 50.6373 33.9101 50.9999 33.9102Z" fill="white"/>
<path d="M38.5663 38.9324L36.1981 37.5653C35.8841 37.384 35.511 37.3348 35.1607 37.4287C34.8105 37.5225 34.5119 37.7516 34.3306 38.0656C34.1493 38.3796 34.1001 38.7528 34.194 39.103C34.2878 39.4532 34.5169 39.7518 34.8309 39.9331L37.1991 41.3003C37.3546 41.3901 37.5263 41.4484 37.7043 41.4718C37.8822 41.4952 38.0631 41.4834 38.2365 41.4369C38.41 41.3905 38.5725 41.3103 38.715 41.201C38.8574 41.0917 38.9769 40.9555 39.0667 40.8C39.1564 40.6445 39.2147 40.4729 39.2382 40.2949C39.2616 40.1169 39.2497 39.936 39.2033 39.7626C39.1568 39.5892 39.0767 39.4266 38.9674 39.2842C38.8581 39.1417 38.7218 39.0222 38.5663 38.9324Z" fill="white"/>
<path d="M37.1991 54.079L34.8309 55.4462C34.675 55.5357 34.5382 55.6551 34.4285 55.7976C34.3188 55.94 34.2383 56.1027 34.1915 56.2764C34.1448 56.45 34.1328 56.6312 34.1561 56.8094C34.1795 56.9877 34.2378 57.1596 34.3277 57.3154C34.4176 57.4711 34.5374 57.6075 34.6801 57.7169C34.8228 57.8263 34.9857 57.9064 35.1595 57.9527C35.3332 57.9991 35.5144 58.0107 35.6926 57.9869C35.8708 57.9631 36.0426 57.9043 36.1981 57.8141L38.5663 56.4469C38.8794 56.2651 39.1076 55.9666 39.2008 55.6168C39.2941 55.267 39.2448 54.8945 39.0638 54.581C38.8828 54.2675 38.5848 54.0386 38.2353 53.9445C37.8857 53.8504 37.5131 53.8987 37.1991 54.079Z" fill="white"/>
</svg>
