<svg width="24" height="23" viewBox="0 0 24 23" fill="none" xmlns="http://www.w3.org/2000/svg">
<path fill-rule="evenodd" clip-rule="evenodd" d="M12.3036 0C18.6506 0 23.8036 5.15299 23.8036 11.5C23.8036 17.847 18.6506 23 12.3036 23C5.95658 23 0.803589 17.847 0.803589 11.5C0.803589 5.15299 5.95658 0 12.3036 0ZM8.70818 17.963V8.98213H5.72249V17.963H8.70818ZM19.4724 17.963V12.8128C19.4724 10.0542 17.9995 8.77095 16.0354 8.77095C14.4517 8.77095 13.7423 9.64194 13.3451 10.2537V8.98213H10.3602C10.3998 9.82473 10.3602 17.963 10.3602 17.963H13.3451V12.9474C13.3451 12.679 13.3644 12.4106 13.4435 12.2188C13.6589 11.6826 14.1504 11.1272 14.9751 11.1272C16.0547 11.1272 16.4873 11.9511 16.4873 13.1578V17.963H19.4724ZM7.2355 4.65166C6.21398 4.65166 5.54658 5.32324 5.54658 6.20349C5.54658 7.06518 6.19368 7.75527 7.19597 7.75527H7.21524C8.25631 7.75527 8.90431 7.06518 8.90431 6.20349C8.88499 5.32324 8.25635 4.65166 7.2355 4.65166Z" fill="white"/>
</svg>
