<svg width="24" height="23" viewBox="0 0 24 23" fill="none" xmlns="http://www.w3.org/2000/svg">
<path fill-rule="evenodd" clip-rule="evenodd" d="M11.6964 23C18.0434 23 23.1964 17.847 23.1964 11.5C23.1964 5.15299 18.0434 0 11.6964 0C5.34942 0 0.196434 5.15299 0.196434 11.5C0.196434 17.847 5.34942 23 11.6964 23ZM11.6964 18.6875C9.74444 18.6875 9.49966 18.6792 8.73303 18.6442C7.96801 18.6093 7.44552 18.4878 6.98831 18.3102C6.51568 18.1265 6.11485 17.8807 5.71527 17.4811C5.31569 17.0815 5.06992 16.6807 4.88623 16.2081C4.70857 15.7509 4.5871 15.2284 4.55215 14.4634C4.5172 13.6968 4.50893 13.452 4.50893 11.5C4.50893 9.54801 4.5172 9.30323 4.55215 8.53659C4.5871 7.77157 4.70857 7.24909 4.88623 6.79192C5.06992 6.3193 5.31569 5.91846 5.71527 5.51883C6.11485 5.11925 6.51568 4.87348 6.98831 4.6898C7.44552 4.51218 7.96801 4.39067 8.73303 4.35576C9.49966 4.32077 9.74444 4.3125 11.6964 4.3125C13.6484 4.3125 13.8932 4.32077 14.6598 4.35576C15.4249 4.39067 15.9473 4.51218 16.4045 4.6898C16.8771 4.87348 17.278 5.11925 17.6776 5.51883C18.0772 5.91846 18.323 6.3193 18.5066 6.79192C18.6843 7.24909 18.8058 7.77157 18.8407 8.53659C18.8757 9.30323 18.8839 9.54801 18.8839 11.5C18.8839 13.452 18.8757 13.6968 18.8407 14.4634C18.8058 15.2284 18.6843 15.7509 18.5066 16.2081C18.323 16.6807 18.0772 17.0815 17.6776 17.4811C17.278 17.8807 16.8771 18.1265 16.4045 18.3102C15.9473 18.4878 15.4249 18.6093 14.6598 18.6442C13.8932 18.6792 13.6484 18.6875 11.6964 18.6875ZM11.6964 17.3924C13.6156 17.3924 13.8429 17.3851 14.6008 17.3505C15.3016 17.3186 15.6821 17.2015 15.9354 17.1031C16.2709 16.9727 16.5104 16.8169 16.7618 16.5654C17.0134 16.3139 17.1691 16.0744 17.2995 15.739C17.3979 15.4857 17.515 15.1052 17.547 14.4044C17.5816 13.6465 17.5889 13.4192 17.5889 11.5C17.5889 9.58085 17.5816 9.35354 17.547 8.59562C17.515 7.89484 17.3979 7.51431 17.2995 7.26104C17.1691 6.92552 17.0134 6.68608 16.7618 6.43461C16.5104 6.18305 16.2709 6.0273 15.9354 5.89694C15.6821 5.79852 15.3016 5.6814 14.6008 5.64946C13.843 5.61487 13.6157 5.60755 11.6964 5.60755C9.77715 5.60755 9.54989 5.61487 8.79206 5.64946C8.09127 5.6814 7.71074 5.79852 7.45747 5.89694C7.12195 6.0273 6.88252 6.18305 6.631 6.43461C6.37948 6.68608 6.22374 6.92552 6.09337 7.26104C5.99495 7.51431 5.87784 7.89484 5.84585 8.59562C5.81126 9.35354 5.80399 9.58085 5.80399 11.5C5.80399 13.4192 5.81126 13.6465 5.84585 14.4044C5.87784 15.1052 5.99495 15.4857 6.09337 15.739C6.22374 16.0744 6.37948 16.3139 6.631 16.5654C6.88252 16.8169 7.12195 16.9727 7.45747 17.1031C7.71074 17.2015 8.09127 17.3186 8.79206 17.3505C9.54998 17.3851 9.77728 17.3924 11.6964 17.3924ZM11.6964 15.1909C9.65801 15.1909 8.00556 13.5384 8.00556 11.5C8.00556 9.46158 9.65801 7.80913 11.6964 7.80913C13.7349 7.80913 15.3873 9.46158 15.3873 11.5C15.3873 13.5384 13.7349 15.1909 11.6964 15.1909ZM11.6964 9.10418C10.3733 9.10418 9.30062 10.1768 9.30062 11.5C9.30062 12.8232 10.3733 13.8958 11.6964 13.8958C13.0196 13.8958 14.0923 12.8232 14.0923 11.5C14.0923 10.1768 13.0196 9.10418 11.6964 9.10418ZM16.3957 15.3367C16.3957 14.8603 16.0095 14.4742 15.5331 14.4742C15.0568 14.4742 14.6707 14.8603 14.6707 15.3367C14.6707 15.813 15.0568 16.1992 15.5331 16.1992C16.0095 16.1992 16.3957 15.813 16.3957 15.3367Z" fill="white"/>
</svg>
