<svg width="24" height="23" viewBox="0 0 24 23" fill="none" xmlns="http://www.w3.org/2000/svg">
<path d="M11.9107 22.6406C18.056 22.6406 23.0513 17.6453 23.0513 11.5C23.0513 5.35469 18.056 0.359375 11.9107 0.359375C5.76539 0.359375 0.770081 5.35469 0.770081 11.5C0.770081 17.6453 5.76539 22.6406 11.9107 22.6406ZM3.28571 15.9383L7.81383 15.9023C8.31696 17.7172 9.16149 19.4781 10.3115 21.0594C7.23883 20.5562 4.6693 18.5977 3.28571 15.9383ZM8.96383 8.44531H14.606C15.0193 10.4219 15.0193 12.4523 14.642 14.4289L8.96383 14.4648C8.55055 12.4703 8.55055 10.4219 8.96383 8.44531ZM11.7849 20.6461C10.6529 19.1906 9.82633 17.5914 9.3232 15.9023L14.2646 15.8664C13.7435 17.5555 12.917 19.1727 11.7849 20.6461ZM13.2224 21.1133C14.4084 19.4961 15.2529 17.7172 15.756 15.8484L20.5896 15.8125C19.188 18.6336 16.4568 20.6641 13.2224 21.1133ZM21.6138 11.5C21.6138 12.5063 21.4521 13.4766 21.1826 14.375L16.0974 14.4109C16.4568 12.4344 16.4388 10.4219 16.0615 8.44531H21.1107C21.4341 9.39766 21.6138 10.4398 21.6138 11.5ZM20.4998 7.00781H15.7201C15.199 5.21094 14.3724 3.46797 13.2224 1.88672C16.4029 2.31797 19.0802 4.27656 20.4998 7.00781ZM14.2287 7.00781H9.34117C9.86227 5.35469 10.6709 3.79141 11.7849 2.35391C12.899 3.79141 13.7076 5.35469 14.2287 7.00781ZM10.3115 1.94063C9.17945 3.50391 8.35289 5.21094 7.84977 7.00781H3.32164C4.70524 4.36641 7.2568 2.44375 10.3115 1.94063ZM7.50836 8.44531C7.13102 10.4398 7.13102 12.4703 7.49039 14.4648L2.69274 14.5008C2.3693 13.5484 2.20758 12.5422 2.20758 11.5C2.20758 10.4398 2.38727 9.39766 2.71071 8.44531H7.50836Z" fill="white"/>
</svg>
